<?xml version="1.0" encoding="utf-8"?>
<!-- Generator: Adobe Illustrator 28.1.0, SVG Export Plug-In . SVG Version: 6.00 Build 0)  -->
<svg version="1.1" id="Layer_1" xmlns="http://www.w3.org/2000/svg" xmlns:xlink="http://www.w3.org/1999/xlink" x="0px" y="0px"
	 viewBox="0 0 429 420.8" style="enable-background:new 0 0 429 420.8;" xml:space="preserve">
<style type="text/css">
	.st0{fill:#515151;}
	.st1{fill:none;stroke:#515151;stroke-width:26;stroke-linecap:round;stroke-miterlimit:10;}
	.st2{fill:none;stroke:#FFFFFF;stroke-width:24;stroke-linecap:round;stroke-miterlimit:10;}
</style>
<circle class="st0" cx="312.8" cy="119.3" r="117.5"/>
<path class="st1" d="M13,115l42-2.3c7.5-0.4,14.2,4.7,15.7,12.1l40.8,194.1c1.5,7,7.7,12.1,14.9,12.1H340"/>
<path class="st0" d="M302.5,248c-60.3,0-110-45.5-116.7-104H71l30.2,115.7c3.9,15,15.5,25.3,28.6,25.3h175.1
	c10.5,0,20.3-6.6,25.7-17.5l13.5-27C331.1,245.3,317.1,248,302.5,248L302.5,248z"/>
<line class="st2" x1="256.3" y1="119.3" x2="369.3" y2="119.3"/>
<line class="st2" x1="312.8" y1="67.2" x2="312.8" y2="171.4"/>
<circle class="st0" cx="130" cy="388.8" r="32"/>
<circle class="st0" cx="308" cy="388.8" r="32"/>
</svg>
