<svg xmlns="http://www.w3.org/2000/svg" width="21.902" height="21.348" viewBox="0 0 21.902 21.348">
  <path id="Icon_awesome-arrow-right" data-name="Icon awesome-arrow-right" d="M9.312,4.077,10.4,2.992a1.168,1.168,0,0,1,1.657,0l9.5,9.5a1.168,1.168,0,0,1,0,1.657l-9.5,9.5a1.168,1.168,0,0,1-1.657,0L9.312,22.565a1.175,1.175,0,0,1,.02-1.677l5.891-5.612H1.173A1.17,1.17,0,0,1,0,14.1V12.539a1.17,1.17,0,0,1,1.173-1.173H15.222L9.332,5.754A1.166,1.166,0,0,1,9.312,4.077Z" transform="translate(0 -2.647)" fill="#c2c1c1" opacity="0.4"/>
</svg>
