<svg xmlns="http://www.w3.org/2000/svg" width="76.728" height="23.517" viewBox="0 0 76.728 23.517">
  <path id="Icon_simple-visa" data-name="Icon simple-visa" d="M55.772,13.445a15.957,15.957,0,0,0-5.563-.962c-6.138,0-10.47,3.095-10.5,7.529-.038,3.261,3.082,5.1,5.438,6.189,2.42,1.119,3.229,1.822,3.223,2.829-.016,1.525-1.934,2.216-3.715,2.216a13.142,13.142,0,0,1-5.854-1.2l-.764-.355L37.169,34.8A20.776,20.776,0,0,0,44.122,36c6.525,0,10.79-3.072,10.841-7.8.051-2.6-1.63-4.572-5.182-6.2-2.155-1.055-3.5-1.762-3.5-2.833,0-.946,1.148-1.957,3.545-1.957a11.382,11.382,0,0,1,4.652.873l.575.259.866-4.936-.15.032ZM71.7,12.9h-4.8a3.1,3.1,0,0,0-3.264,1.889L54.42,35.681h6.525l1.3-3.421,7.961.006c.2.8.767,3.414.767,3.414h5.751L71.7,12.9ZM30.883,12.71h6.212L33.211,35.5H27l3.888-22.8ZM15.093,25.271l.646,3.165L21.816,12.9H28.4L18.613,35.649H12.046L6.675,16.383a1.272,1.272,0,0,0-.575-.758A26.251,26.251,0,0,0,0,13.365l.08-.48H10.09c1.356.051,2.449.48,2.823,1.931l2.18,10.464v-.01ZM64.033,27.6l2.478-6.375c-.032.064.512-1.317.825-2.174l.425,1.966L69.2,27.589H64.033V27.6Z" transform="translate(0 -12.483)"/>
</svg>
