<?xml version="1.0" encoding="UTF-8"?>
<svg id="Layer_1" data-name="Layer 1" xmlns="http://www.w3.org/2000/svg" viewBox="0 0 500.44 385.08">
  <defs>
    <style>
      .cls-1, .cls-2, .cls-3 {
        stroke-width: 0px;
      }

      .cls-2 {
        fill: #231f20;
        fill-rule: evenodd;
      }

      .cls-3 {
        fill: #3a3a3a;
      }
    </style>
  </defs>
  <path class="cls-2" d="M141.36,343.32v40.74h-8.93v-4.95c-2.83,3.67-7.13,5.97-12.97,5.97-11.51,0-20.54-8.95-20.54-21.4s9.03-21.39,20.54-21.39c5.84,0,10.14,2.3,12.97,5.97v-4.95h8.93ZM120.58,350.65c-7.73,0-12.46,5.88-12.46,13.04s4.73,13.04,12.46,13.04,12.37-5.63,12.37-13.04-4.98-13.04-12.37-13.04ZM443.07,363.69c0-7.16,4.73-13.04,12.46-13.04s12.37,5.63,12.37,13.04-4.98,13.04-12.37,13.04-12.46-5.88-12.46-13.04ZM476.33,326.96v57.1h-8.94v-4.95c-2.83,3.67-7.13,5.97-12.97,5.97-11.51,0-20.54-8.95-20.54-21.4s9.03-21.39,20.54-21.39c5.84,0,10.14,2.3,12.97,5.97v-21.31h8.94ZM252.19,350.23c5.75,0,9.45,3.58,10.39,9.88h-21.31c.95-5.88,4.55-9.88,10.91-9.88ZM231.91,363.69c0-12.7,8.42-21.39,20.45-21.39s19.41,8.69,19.5,21.39c0,1.19-.09,2.3-.18,3.41h-30.49c1.29,7.34,6.53,9.98,12.28,9.98,4.12,0,8.51-1.54,11.95-4.26l4.38,6.57c-4.98,4.18-10.65,5.71-16.83,5.71-12.29,0-21.05-8.44-21.05-21.4ZM360.17,363.69c0-7.16,4.73-13.04,12.46-13.04s12.37,5.63,12.37,13.04-4.99,13.04-12.37,13.04-12.46-5.88-12.46-13.04ZM393.42,343.32v40.74h-8.93v-4.95c-2.84,3.67-7.13,5.97-12.97,5.97-11.51,0-20.54-8.95-20.54-21.4s9.03-21.39,20.54-21.39c5.84,0,10.13,2.3,12.97,5.97v-4.95h8.93ZM309.75,363.69c0,12.36,8.67,21.4,21.91,21.4,6.18,0,10.3-1.37,14.77-4.86l-4.29-7.16c-3.35,2.39-6.87,3.67-10.75,3.67-7.13-.09-12.37-5.2-12.37-13.04s5.24-12.96,12.37-13.04c3.87,0,7.39,1.28,10.75,3.67l4.29-7.16c-4.46-3.49-8.58-4.86-14.77-4.86-13.23,0-21.91,9.03-21.91,21.39ZM414.04,348.27c2.32-3.58,5.67-5.97,10.83-5.97,1.81,0,4.38.34,6.36,1.11l-2.75,8.35c-1.89-.77-3.78-1.02-5.58-1.02-5.84,0-8.76,3.75-8.76,10.49v22.84h-8.94v-40.74h8.85v4.95ZM185.52,346.56c-4.3-2.81-10.22-4.26-16.75-4.26-10.4,0-17.1,4.95-17.1,13.04,0,6.64,4.99,10.74,14.17,12.02l4.22.59c4.9.68,7.21,1.96,7.21,4.26,0,3.15-3.26,4.95-9.36,4.95s-10.65-1.96-13.66-4.26l-4.21,6.9c4.9,3.58,11.08,5.29,17.78,5.29,11.86,0,18.73-5.54,18.73-13.3,0-7.16-5.41-10.91-14.35-12.18l-4.21-.61c-3.86-.51-6.96-1.27-6.96-4,0-2.98,2.92-4.77,7.82-4.77,5.24,0,10.31,1.96,12.8,3.49l3.86-7.16ZM289.91,348.27c2.31-3.58,5.66-5.97,10.82-5.97,1.81,0,4.39.34,6.36,1.11l-2.75,8.35c-1.89-.77-3.78-1.02-5.58-1.02-5.84,0-8.76,3.75-8.76,10.49v22.84h-8.93v-40.74h8.85v4.95ZM224.53,343.32h-14.6v-12.36h-9.03v12.36h-8.33v8.1h8.33v18.59c0,9.45,3.7,15.08,14.26,15.08,3.87,0,8.34-1.19,11.17-3.15l-2.58-7.59c-2.66,1.53-5.58,2.3-7.9,2.3-4.46,0-5.92-2.73-5.92-6.82v-18.41h14.6v-8.1ZM91.03,358.49v25.57h-9.03v-22.67c0-6.91-2.92-10.74-9.02-10.74s-10.05,3.76-10.05,10.83v22.58h-9.03v-22.67c0-6.91-3-10.74-8.93-10.74s-10.06,3.76-10.06,10.83v22.58h-9.02v-40.74h8.94v5.02c3.35-4.77,7.64-6.05,12.02-6.05,6.27,0,10.74,2.73,13.57,7.25,3.78-5.72,9.19-7.34,14.43-7.25,9.97.09,16.15,6.57,16.15,16.19Z"/>
  <path class="cls-1" d="M317.88,274.09h-135.32V32.8h135.32v241.29Z"/>
  <path class="cls-1" d="M191.15,153.45c0-48.95,23.1-92.55,59.06-120.64C223.91,12.26,190.72,0,154.64,0,69.23,0,0,68.7,0,153.45s69.23,153.45,154.64,153.45c36.08,0,69.27-12.26,95.57-32.81-35.97-28.1-59.06-71.7-59.06-120.64"/>
  <path class="cls-3" d="M500.44,153.45c0,84.75-69.23,153.45-154.64,153.45-36.08,0-69.27-12.26-95.58-32.81,35.98-28.1,59.08-71.7,59.08-120.64s-23.1-92.55-59.08-120.64C276.53,12.26,309.72,0,345.8,0c85.41,0,154.64,68.7,154.64,153.45"/>
</svg>