<?xml version="1.0" encoding="UTF-8"?>
<svg xmlns="http://www.w3.org/2000/svg" viewBox="0 0 359.56 279.15">
  <defs>
    <style>
      .cls-1, .cls-2 {
        stroke-width: 0px;
      }

      .cls-3 {
        fill: #fff;
        font-family: RobotoSlab-Regular, 'Roboto Slab';
        font-size: 121.16px;
        font-variation-settings: 'wght' 400;
      }

      .cls-2 {
        fill: #6d6d6d;
      }
    </style>
  </defs>
  <g id="Layer_3" data-name="Layer 3">
    <circle class="cls-1" cx="179.78" cy="205.01" r="59.62"/>
    <text class="cls-3" transform="translate(149.14 246.32) rotate(-.48) scale(1.1 1)"><tspan x="0" y="0">?</tspan></text>
  </g>
  <g id="Layer_1" data-name="Layer 1">
    <path class="cls-2" d="M359.56,184.38c-5.09,4.93-10.2,3.18-15.83.67-49.88-22.22-96.84-49.46-141.28-81.17-16.96-12.1-28.7-12-45.54.06-37.9,27.14-77.76,50.96-119.7,71.28-8.15,3.95-16.43,7.65-24.68,11.38-5.04,2.28-9.4,1.63-12.52-3.39v-6.96c4.74-10.14,13.69-14.96,23.35-19.37,19.11-8.72,38.45-17.11,56.78-27.28,21.07-11.69,38.78-28.12,54.73-46.06,10.09-11.35,20.84-19.51,37.93-17.38,0-5.07.32-9.63-.07-14.13-.69-7.85,3.27-12.39,9.48-16.42,3.39-2.21,6.81-5.9,8-9.63,1.84-5.79-2.85-11.3-9.03-12.5-5.9-1.15-11.2,2.16-12.87,8.08-.36,1.3-.54,2.65-.81,3.97-.83,4.08-3.7,6.66-7.36,5.31-2.38-.88-5.1-4.48-5.27-7.02-.67-9.94,7.66-20.06,17.91-22.95,10.27-2.9,21.33,1.5,27.12,10.77,6.05,9.7,5.34,20.29-1.95,28.36-1.03,1.14-2.17,2.21-3.36,3.18q-10.12,8.15-8.56,22.54c1.21.1,2.51.41,3.78.28,13.07-1.31,23.03,4.03,31.53,13.66,26.96,30.54,58.45,54.86,96.86,69.53,7.74,2.96,15.24,6.54,22.87,9.8,8.25,3.53,14.55,9.13,18.52,17.25v8.12Z"/>
  </g>
</svg>