<?xml version="1.0" encoding="UTF-8"?>
<svg id="Layer_1" data-name="Layer 1" xmlns="http://www.w3.org/2000/svg" viewBox="0 0 562.35 562.35">
  <defs>
    <style>
      .cls-1, .cls-2 {
        stroke-width: 0px;
      }

      .cls-2 {
        fill: #fff;
      }

      .cls-3 {
        fill: none;
        stroke: #fff;
        stroke-linecap: round;
        stroke-miterlimit: 10;
        stroke-width: 50px;
      }
    </style>
  </defs>
  <g>
    <path class="cls-1" d="M281.18,561.85c-74.97,0-145.46-29.2-198.47-82.21C29.7,426.63.5,356.15.5,281.18S29.7,135.72,82.71,82.71C135.72,29.7,206.2.5,281.18.5s145.46,29.2,198.47,82.21c53.01,53.01,82.21,123.5,82.21,198.47s-29.2,145.46-82.21,198.47c-53.01,53.01-123.5,82.21-198.47,82.21Z"/>
    <path class="cls-2" d="M281.18,1c37.82,0,74.52,7.41,109.06,22.02,33.36,14.11,63.33,34.31,89.06,60.04,25.73,25.73,45.93,55.69,60.04,89.06,14.61,34.54,22.02,71.23,22.02,109.06s-7.41,74.52-22.02,109.06c-14.11,33.36-34.31,63.33-60.04,89.06s-55.69,45.93-89.06,60.04c-34.54,14.61-71.23,22.02-109.06,22.02s-74.52-7.41-109.06-22.02c-33.36-14.11-63.33-34.31-89.06-60.04-25.73-25.73-45.93-55.69-60.04-89.06C8.41,355.69,1,319,1,281.18s7.41-74.52,22.02-109.06c14.11-33.36,34.31-63.33,60.04-89.06,25.73-25.73,55.69-45.93,89.06-60.04C206.66,8.41,243.35,1,281.18,1M281.18,0C125.89,0,0,125.89,0,281.18s125.89,281.18,281.18,281.18,281.18-125.89,281.18-281.18S436.47,0,281.18,0h0Z"/>
  </g>
  <path class="cls-3" d="M123.46,310.68l122.65,101.6c.47.41,1.19.32,1.55-.19l191.24-262.27"/>
</svg>