<?xml version="1.0" encoding="UTF-8"?>
<svg id="Layer_1" data-name="Layer 1" xmlns="http://www.w3.org/2000/svg" viewBox="0 0 429 420.75">
  <defs>
    <style>
      .cls-1 {
        stroke-width: 20px;
      }

      .cls-1, .cls-2, .cls-3 {
        stroke-linecap: round;
        stroke-miterlimit: 10;
      }

      .cls-1, .cls-3 {
        stroke: #fff;
      }

      .cls-4 {
        fill: #515151;
        stroke-width: 0px;
      }

      .cls-2 {
        fill: none;
        stroke: #515151;
        stroke-width: 26px;
      }

      .cls-3 {
        stroke-width: 22px;
      }
    </style>
  </defs>
  <circle class="cls-4" cx="311.5" cy="117.5" r="117.5"/>
  <path class="cls-2" d="M13,115l41.96-2.29c7.5-.41,14.18,4.72,15.72,12.07l40.78,194.13c1.48,7.05,7.69,12.09,14.89,12.09h213.64"/>
  <path class="cls-4" d="M302.5,248c-60.33,0-110.03-45.47-116.72-104h-114.78l30.15,115.72c3.92,15.05,15.49,25.28,28.58,25.28h175.09c10.52,0,20.27-6.65,25.68-17.52l13.45-27.01c-12.89,4.86-26.86,7.53-41.45,7.53Z"/>
  <line class="cls-1" x1="229.94" y1="114.4" x2="399" y2="114.4"/>
  <line class="cls-3" x1="314.47" y1="36.55" x2="314.47" y2="192.25"/>
  <circle class="cls-4" cx="130" cy="388.75" r="32"/>
  <circle class="cls-4" cx="308" cy="388.75" r="32"/>
</svg>