<?xml version="1.0" encoding="UTF-8"?>
<svg id="Layer_1" data-name="Layer 1" xmlns="http://www.w3.org/2000/svg" viewBox="0 0 953.39 957.38">
  <defs>
    <style>
      .cls-1 {
        stroke-width: 0px;
      }
    </style>
  </defs>
  <path class="cls-1" d="M400.56,957.32C191.52,960.9,5.11,788.55.11,568.01-4.91,347.25,168.23,163.48,388.77,158.05c240.69-5.93,411.16,187.24,412.07,398.06.95,221.47-181.51,403.53-400.28,401.22ZM208.87,426.85c.37,32.57,3.72,57.66,11.49,84.89,15.8,55.4,41.82,105.85,75.38,152.44,31.14,43.24,67.75,81.02,113.25,109.42,25.95,16.2,53.31,28.82,84.53,30.92,35.84,2.41,65.77-10.14,89.87-36.17,11.3-12.2,11.96-23.94,3.28-38.05-11.95-19.45-26.79-36.57-45.14-50.31-12.34-9.24-26.31-14.74-41.67-10.38-9.6,2.72-19.04,7.23-27.43,12.68-10.71,6.95-20.36,15.56-30.3,23.66-3.43,2.8-6.59,2.91-9.94.42-6.14-4.57-12.48-8.92-18.25-13.93-54.13-46.91-91.15-106.02-120.65-170.37-5.21-11.35-9.39-23.12-10.55-35.78-.99-10.85,2.66-19.34,11.95-25.1,6.22-3.86,12.85-7.07,18.97-11.08,10-6.54,19.69-13.54,29.59-20.23,7.37-4.98,9.22-11.47,8.32-20.36-3.06-30.06-12.61-57.59-30.82-81.69-15.2-20.11-38.72-23.43-57.88-7.14-33.74,28.69-56.47,63.4-54.01,106.16Z"/>
</svg>