<?xml version="1.0" encoding="UTF-8"?>
<svg id="Layer_1" data-name="Layer 1" xmlns="http://www.w3.org/2000/svg" viewBox="0 0 225 231.36">
  <defs>
    <style>
      .cls-1 {
        stroke-width: 0px;
      }

      .cls-2 {
        fill: none;
        stroke: #000;
        stroke-miterlimit: 10;
        stroke-width: 8px;
      }
    </style>
  </defs>
  <path class="cls-1" d="M24.93,97.22c-2.05-29.11,8.96-59.88,32.42-78.48C71.54,7.32,89.57,1.61,107.56.3c2.09-.08,6.04-.23,8.17-.3,5.32.06,11.08.46,16.38,1.11,14.33,2.1,28.5,7.18,40.14,15.94,23.59,17.4,34.99,47.19,34.09,75.63-.04,1.52-.14,2.93-.32,4.59,0,0-8.04.19-8.04.19-1.21-5.19-2.73-10.47-4.51-15.46-14.62-40.73-41.14-59.31-84.31-57.09-42.43,2.5-64.1,29.78-75.12,68.77,0,0-.98,3.83-.98,3.83,0,0-8.13-.29-8.13-.29h0Z"/>
  <path class="cls-2" d="M199.77,164.21s-3.77,60.15-64.77,56.15"/>
  <circle class="cls-1" cx="135" cy="220.36" r="11"/>
  <g>
    <path class="cls-1" d="M17.44,96.64c-9.68.3-17.44,8.22-17.44,17.97v34c0,9.75,7.76,17.68,17.44,17.97v-69.94Z"/>
    <path class="cls-1" d="M36,96.61h-11.33v70h11.33c9.94,0,18-8.06,18-18v-34c0-9.94-8.06-18-18-18Z"/>
  </g>
  <g>
    <path class="cls-1" d="M206.53,96.61h-17.53c-9.94,0-18,8.06-18,18v34c0,9.94,8.06,18,18,18h17.53v-70Z"/>
    <path class="cls-1" d="M213.76,97.93v67.35c6.59-2.67,11.24-9.13,11.24-16.68v-34c0-7.55-4.65-14-11.24-16.68Z"/>
  </g>
</svg>