<?xml version="1.0" encoding="UTF-8"?>
<svg id="Layer_1" data-name="Layer 1" xmlns="http://www.w3.org/2000/svg" viewBox="0 0 373.94 375.05">
  <defs>
    <style>
      .cls-1 {
        fill: #dbdbdd;
      }

      .cls-1, .cls-2, .cls-3, .cls-4, .cls-5, .cls-6, .cls-7, .cls-8 {
        stroke-width: 0px;
      }

      .cls-2 {
        fill: #b8b8ba;
      }

      .cls-3 {
        fill: #4d4d4f;
      }

      .cls-9 {
        stroke: #fff;
        stroke-miterlimit: 10;
        stroke-width: 13.51px;
      }

      .cls-10 {
        opacity: 0;
      }

      .cls-5 {
        isolation: isolate;
        opacity: .1;
      }

      .cls-5, .cls-7 {
        fill: #0b79bf;
      }

      .cls-6 {
        fill: #fff;
      }

      .cls-8 {
        fill: #ffbd0a;
      }
    </style>
  </defs>
  <g>
    <g>
      <ellipse class="cls-5" cx="186.13" cy="351.8" rx="186.08" ry="23.26"/>
      <g>
        <g>
          <circle class="cls-3" cx="95.99" cy="331.44" r="20.35"/>
          <circle class="cls-3" cx="276.25" cy="331.44" r="20.35"/>
        </g>
        <path class="cls-1" d="M95.99,340.17c-4.22,0-7.87-3.34-8.69-7.98l-5.84-32.72h29.07l-5.84,32.72c-.83,4.64-4.47,7.98-8.7,7.98ZM276.26,340.17c-4.23,0-7.87-3.34-8.7-7.98l-5.84-32.72h29.08l-5.85,32.72c-.83,4.64-4.47,7.98-8.69,7.98Z"/>
        <g>
          <path class="cls-2" d="M8.66,26.23l.6.09,21.58,4.29c6.53,1.29,11.91,5.92,14.15,12.19l.28.86,30.57,100.38h22.38l-14.62-67.44c-.89-4.13,1.74-8.2,5.87-9.09,0,0,.02,0,.02,0,3.92-.85,7.84,1.45,9,5.29l.15.58,15.32,70.67h22.41l-8.17-64.05c-.93-4.15,1.69-8.26,5.84-9.19,4.15-.93,8.26,1.69,9.19,5.84.06.28.11.56.14.84l.1.59,8.43,65.98h19.84l-2.46-59.11c-.17-4.23,3.13-7.8,7.36-7.96,0,0,.01,0,.02,0,3.98-.11,7.41,2.8,7.94,6.75l.05.59,2.48,59.73h18.8v-55.02c0-4.23,3.44-7.66,7.69-7.66s7.36,3.11,7.67,7.05l.03.6v55.02h19.98v-50.34c0-4.23,3.44-7.66,7.69-7.66s7.37,3.11,7.67,7.06l.03.6v50.34h19.75v-46.37c0-4.23,3.44-7.65,7.69-7.65s7.36,3.1,7.67,7.05l.02.6v46.37h18.46v-42.86c0-4.23,3.44-7.65,7.69-7.65s7.36,3.1,7.67,7.05l.02.6v96.21c0,9.53-7.25,17.59-16.67,18.74l-.89.09-210.99,15.75-28.53,52.72c-.64,1.1-.61,2.46.08,3.53.52.88,1.34,1.55,2.54,1.7l.54.04h234.94c4.25,0,7.69,3.42,7.69,7.66s-3.12,7.33-7.09,7.63l-.6.02H71.76c-6.68.03-12.87-3.47-16.29-9.2-3.26-5.37-3.59-12.02-.89-17.69l.48-.94,29.01-53.62L30.55,48.1c-.34-1.1-1.18-1.97-2.27-2.34l-.48-.13-21.57-4.29c-4.15-.83-6.84-4.86-6.01-9.01.78-3.93,4.46-6.59,8.43-6.1ZM101.55,159.35h-21.04l17.43,57.22,15.75-1.18s-12.14-56.04-12.14-56.04ZM138.34,159.35h-21.05l11.9,54.88,16-1.19-6.86-53.69h0ZM172.38,159.35h-18.53l6.7,52.54,13.97-1.04-2.15-51.5h0ZM205.94,159.35h-18.16l2.09,50.36,16.07-1.2v-49.15h0ZM241.31,159.35h-19.98v48.01l19.98-1.49v-46.52ZM276.45,159.35h-19.76v45.37l19.75-1.48v-43.9h0ZM310.29,159.35h-18.46v42.75l15.13-1.13c1.86-.14,3.31-1.69,3.32-3.56,0,0,0-38.06,0-38.06Z"/>
          <path class="cls-8" d="M8.66,26.23l.6.09,21.58,4.29c6.53,1.29,11.91,5.92,14.15,12.19l.28.86-14.72,4.44c-.34-1.1-1.18-1.97-2.27-2.34l-.48-.13-21.57-4.29c-4.16-.78-6.89-4.79-6.1-8.94.75-3.99,4.5-6.7,8.53-6.17Z"/>
          <path class="cls-1" d="M323.08,93.08L50.56,60.95l4.64,15.23,266.06,31.23c.26.04.58.05.92.05,3.78,0,6.98-2.72,7.44-6.35.5-3.95-2.42-7.55-6.54-8.03Z"/>
        </g>
      </g>
    </g>
    <g class="cls-10">
      <circle class="cls-6" cx="298.35" cy="75.59" r="75.59"/>
      <circle class="cls-7" cx="298.35" cy="75.59" r="58.15"/>
      <path class="cls-6" d="M298.27,46.54c2.88,0,5.57.49,8.1,1.47,2.52.98,4.75,2.61,6.67,4.89,1.93,2.28,3.45,5.3,4.56,9.07,1.11,3.77,1.67,8.43,1.67,13.96s-.56,10.46-1.67,14.29c-1.11,3.83-2.63,6.88-4.55,9.16-1.78,2.17-4.07,3.85-6.68,4.88-2.59.99-5.33,1.49-8.1,1.47-2.83,0-5.5-.49-8.02-1.47-2.6-1.03-4.88-2.71-6.64-4.88-1.9-2.28-3.4-5.33-4.52-9.16-1.11-3.83-1.67-8.59-1.67-14.29s.56-10.19,1.67-13.96c1.11-3.77,2.62-6.8,4.52-9.07,1.75-2.17,4.04-3.86,6.64-4.89,2.52-.97,5.2-1.47,8.02-1.47ZM298.27,56.06c-1.57,0-2.89.36-3.95,1.06-1.06.71-1.95,1.66-2.6,2.76-.68,1.14-1.21,2.43-1.59,3.87-.38,1.43-.65,2.88-.81,4.35-.16,1.47-.26,2.89-.29,4.27l-.03,1.93v2.63c.01,1.41.06,3.04.15,4.89.1,2.3.44,4.53,1.02,6.67.57,2.15,1.48,3.98,2.73,5.49,1.25,1.52,3.04,2.28,5.37,2.28s4.22-.76,5.5-2.28c1.28-1.52,2.2-3.35,2.77-5.49.57-2.18.92-4.42,1.02-6.67.07-1.39.11-2.65.14-3.79l.03-2.11-.04-3.54c-.06-2.91-.44-5.8-1.14-8.63-.32-1.36-.86-2.67-1.59-3.87-.68-1.11-1.6-2.05-2.68-2.76-1.08-.71-2.41-1.06-3.99-1.06Z"/>
    </g>
  </g>
  <circle class="cls-4" cx="309.24" cy="67.84" r="64.67"/>
  <line class="cls-9" x1="280.17" y1="37.38" x2="338.3" y2="95.51"/>
  <line class="cls-9" x1="280.17" y1="95.51" x2="338.3" y2="37.38"/>
</svg>