<svg xmlns="http://www.w3.org/2000/svg" width="36" height="36" viewBox="0 0 36 36">
  <path id="Icon_material-copyright" data-name="Icon material-copyright" d="M17.544,18.948a4.6,4.6,0,0,1,.54-1.566,3.149,3.149,0,0,1,1.062-1.116,3.194,3.194,0,0,1,1.638-.414,3.263,3.263,0,0,1,1.134.234,2.9,2.9,0,0,1,.936.648,3.466,3.466,0,0,1,.612.954,3.152,3.152,0,0,1,.252,1.152H26.94a6.443,6.443,0,0,0-.5-2.322,5.4,5.4,0,0,0-1.26-1.818,5.879,5.879,0,0,0-1.944-1.188,6.953,6.953,0,0,0-2.5-.414,7.035,7.035,0,0,0-3.06.612,6.19,6.19,0,0,0-2.16,1.656,6.767,6.767,0,0,0-1.278,2.448,10.542,10.542,0,0,0-.432,2.952v.486a10.539,10.539,0,0,0,.414,2.952,6.544,6.544,0,0,0,1.278,2.43,6.145,6.145,0,0,0,2.16,1.638,7.3,7.3,0,0,0,3.06.612,6.865,6.865,0,0,0,2.376-.414,6.14,6.14,0,0,0,1.944-1.134,5.494,5.494,0,0,0,1.332-1.692,4.845,4.845,0,0,0,.54-2.07H23.682a2.563,2.563,0,0,1-.27,1.044,2.649,2.649,0,0,1-.648.828,2.835,2.835,0,0,1-.936.54,3.574,3.574,0,0,1-1.08.18,3.057,3.057,0,0,1-1.6-.414,3.149,3.149,0,0,1-1.062-1.116,4.7,4.7,0,0,1-.54-1.584,12.132,12.132,0,0,1-.144-1.8v-.486a11.993,11.993,0,0,1,.144-1.818ZM21,3A18,18,0,1,0,39,21,18.007,18.007,0,0,0,21,3Zm0,32.4A14.4,14.4,0,1,1,35.4,21,14.419,14.419,0,0,1,21,35.4Z" transform="translate(-3 -3)" opacity="0.3"/>
</svg>
